<svg xmlns="http://www.w3.org/2000/svg" width="500" height="131.987" viewBox="0 0 500 131.987">
  <g id="aaj_kya_OTT_logo" transform="translate(0.004 -0.343)">
    <path id="Path_39887" data-name="Path 39887" d="M99.261,110.154a49.028,49.028,0,0,0-15.917-3.672,51.032,51.032,0,0,0-16.1,1.892A47.649,47.649,0,0,0,52.6,114.949a22.192,22.192,0,0,0-5.563,5.366,9.3,9.3,0,0,0-1.811,6.712,13.435,13.435,0,0,0,3.333,6.4c.425.475.865.946,1.33,1.4l.723.678c.243.228.47.4.708.607s.46.4.713.582l.769.506a15.525,15.525,0,0,0,1.608.961c4.486,2.352,9.822,3.262,15.1,3.657a100.1,100.1,0,0,0,16.088-.334c2.681-.253,5.366-.587,8.037-1.012,1.33-.2,2.665-.42,3.991-.663l1.983-.374.981-.2.506-.1.238-.056h.243l.192-.03a3.193,3.193,0,0,1,.384-.035l-.627.071a333.531,333.531,0,0,0,97.694-41.048,5.088,5.088,0,1,1,5.386,8.634l-.157.1h-.025a341.394,341.394,0,0,1-101.659,37.973l-.627.066a1.468,1.468,0,0,0,.258,0h.051l-.268.051-.506.086-1.047.167-2.084.309q-2.086.3-4.173.506c-2.782.3-5.563.541-8.37.688a104,104,0,0,1-16.872-.344,57.155,57.155,0,0,1-8.426-1.517,32.877,32.877,0,0,1-8.123-3.257,19.669,19.669,0,0,1-1.881-1.229l-.951-.647c-.293-.233-.566-.506-.855-.754a10.048,10.048,0,0,1-.824-.774l-.738-.769a21.768,21.768,0,0,1-1.441-1.654,16.228,16.228,0,0,1-3.793-8.234,11.218,11.218,0,0,1,.506-4.709,14.254,14.254,0,0,1,2.144-4.046,24.94,24.94,0,0,1,6.474-5.776A49.692,49.692,0,0,1,66.8,106.624a51.9,51.9,0,0,1,16.615-1.113,47.352,47.352,0,0,1,8.168,1.6,49.9,49.9,0,0,1,7.678,3.04Z" transform="translate(-42.04 -86.616)" fill="#03e17e"/>
    <path id="Path_39888" data-name="Path 39888" d="M86.11,243.688a80.4,80.4,0,0,1-20.008-9.9c-2.443-8.6-5.933-21.177-8.932-32.03,6.848,4.78,16.726,6.873,26.907,7.551a1.219,1.219,0,0,1,1.133,1.123l2.529,32a1.224,1.224,0,0,1-1.629,1.254Z" transform="translate(-49.52 -139.848)" fill="#6804a8"/>
    <path id="Path_39889" data-name="Path 39889" d="M176.532,207.142l-7.3,43.263a1.229,1.229,0,0,1-1.224,1.012c-13.737-.132-24.378-1.184-32.956-2.878a1.219,1.219,0,0,1-.976-1.173L133.34,212.7a1.219,1.219,0,0,1,1.189-1.244,196.629,196.629,0,0,0,29.957-3.368q4.962-1.012,10.55-2.342a1.224,1.224,0,0,1,1.5,1.4Z" transform="translate(-87.165 -141.92)" fill="#03e17e"/>
    <path id="Path_39890" data-name="Path 39890" d="M242.915,226.806c-6.878.45-13.211.743-19.073.89a1.219,1.219,0,0,1-1.209-1.517l11.734-47.365a1.2,1.2,0,0,1,.845-.875,444.849,444.849,0,0,0,55.867-20.049Z" transform="translate(-133.101 -118.053)" fill="#6804a8"/>
    <path id="Path_39891" data-name="Path 39891" d="M139.128,241.459c-2.8,0-5.614-.051-8.4-.152-3.389-.121-10.156-.45-17.409-1.285-34.959-4.006-52.211-16.3-53.51-20.737-.536-1.831-1.34-4.658-2.321-8.118L48.55,179.118C45.192,166.98,42.45,157,42.45,157a1.361,1.361,0,1,1,2.62-.718s2.746,9.989,6.1,22.087l8.932,32.03c.981,3.444,1.78,6.267,2.316,8.092.946,3.227,18.147,15.021,51.209,18.815,7.43.85,14.505,1.168,17.2,1.27,4.157.147,8.37.182,12.523.106a1.361,1.361,0,1,1,.051,2.721Q141.272,241.459,139.128,241.459Z" transform="translate(-42.209 -117.57)" fill="#03e17e"/>
    <path id="Path_39892" data-name="Path 39892" d="M83.662,145.811c-18.289,0-32.612-7.152-32.612-16.276S65.373,113.26,83.662,113.26s32.607,7.152,32.607,16.276S101.951,145.811,83.662,145.811Zm0-29.84c-16.185,0-29.891,6.206-29.891,13.555S67.462,143.08,83.662,143.08s29.891-6.206,29.891-13.555-13.686-13.544-29.891-13.544Z" transform="translate(-46.495 -94.522)" fill="#03e17e"/>
    <ellipse id="Ellipse_2046" data-name="Ellipse 2046" cx="23.842" cy="10.859" rx="23.842" ry="10.859" transform="translate(13.639 20.419)" fill="#ff5080"/>
    <path id="Path_39893" data-name="Path 39893" d="M363.782,203.239a23.18,23.18,0,0,1-9.766-8.8,24.4,24.4,0,0,1-3.429-12.917,34.22,34.22,0,0,1,4.476-17.434,31.478,31.478,0,0,1,12.513-12.108,37.715,37.715,0,0,1,18.288-4.36,33.113,33.113,0,0,1,14.89,3.146,23.179,23.179,0,0,1,9.766,8.8,24.4,24.4,0,0,1,3.434,12.917,34.158,34.158,0,0,1-4.491,17.434,31.479,31.479,0,0,1-12.513,12.108,37.631,37.631,0,0,1-18.284,4.36A33.1,33.1,0,0,1,363.782,203.239Zm25.632-12.755a17.652,17.652,0,0,0,6.216-7.141,22.34,22.34,0,0,0,2.175-9.893,12.221,12.221,0,0,0-3.51-9.16q-3.51-3.429-9.807-3.429a16.6,16.6,0,0,0-9.362,2.66,17.555,17.555,0,0,0-6.216,7.146,22.254,22.254,0,0,0-2.18,9.888,12.21,12.21,0,0,0,3.51,9.16q3.51,3.424,9.807,3.434A16.624,16.624,0,0,0,389.414,190.484Z" transform="translate(-197.611 -112.602)" fill="#fff"/>
    <path id="Path_39894" data-name="Path 39894" d="M490.518,162.525H473.16l2.584-12.675h50.612l-2.579,12.675H506.5l-8.8,43.835H481.718Z" transform="translate(-259.319 -113.706)" fill="#fff"/>
    <path id="Path_39895" data-name="Path 39895" d="M593.463,162.525H576.11l2.579-12.675h50.617l-2.585,12.675H609.435l-8.8,43.835H584.652Z" transform="translate(-311.205 -113.706)" fill="#fff"/>
    <path id="Path_39896" data-name="Path 39896" d="M694.206,187.555a15.533,15.533,0,0,1,5.9,5.968,18.153,18.153,0,0,1,2.23,9.149,22.793,22.793,0,0,1-2.757,11.2,20.737,20.737,0,0,1-7.475,7.855,19.437,19.437,0,0,1-10.3,2.863q-8.239,0-11.587-5.164l-3.631,18.081H653.33l10.262-51.386H676.16l-.768,3.54a15.587,15.587,0,0,1,10.96-4.188A15.8,15.8,0,0,1,694.206,187.555Zm-7.784,23.422a11.194,11.194,0,0,0,2.529-7.587,7.234,7.234,0,0,0-1.922-5.306,7.075,7.075,0,0,0-5.27-1.957,8.143,8.143,0,0,0-6.489,2.933,11.331,11.331,0,0,0-2.529,7.678,6.632,6.632,0,0,0,7.187,7.192,8.148,8.148,0,0,0,6.494-2.954Z" transform="translate(-350.068 -131.76)" fill="#fff"/>
    <path id="Path_39897" data-name="Path 39897" d="M762.223,159.15h13.261l-10.328,51.806H751.89Z" transform="translate(-399.373 -118.372)" fill="#fff"/>
    <path id="Path_39898" data-name="Path 39898" d="M843.868,186.181l-7.541,37.842H823.758l.769-3.54a15.587,15.587,0,0,1-10.96,4.188,15.806,15.806,0,0,1-7.855-2.059,15.5,15.5,0,0,1-5.9-5.963,18.3,18.3,0,0,1-2.231-9.215,22.61,22.61,0,0,1,2.757-11.127,20.707,20.707,0,0,1,7.47-7.855,19.483,19.483,0,0,1,10.3-2.863q8.238,0,11.587,5.164l.91-4.552Zm-19.219,24.854a11.193,11.193,0,0,0,2.529-7.587,7.234,7.234,0,0,0-1.922-5.306,7.075,7.075,0,0,0-5.27-1.957,8.148,8.148,0,0,0-6.494,2.933,11.332,11.332,0,0,0-2.529,7.678,6.639,6.639,0,0,0,7.192,7.192,8.163,8.163,0,0,0,6.514-2.954Z" transform="translate(-422.712 -131.609)" fill="#fff"/>
    <path id="Path_39899" data-name="Path 39899" d="M932.3,186.76l-24.221,39.516a40.448,40.448,0,0,1-5.761,7.506,16.946,16.946,0,0,1-5.832,3.839,21.606,21.606,0,0,1-13.15.248,13.386,13.386,0,0,1-4.714-2.377l5.938-9.352a8.71,8.71,0,0,0,5.862,2.16,5.645,5.645,0,0,0,3.075-.8,9.5,9.5,0,0,0,2.529-2.62l-8.6-38.12h13.2l4.744,23.265,13.964-23.265Z" transform="translate(-464.291 -132.414)" fill="#fff"/>
    <path id="Path_39902" data-name="Path 39902" d="M9.727,10.521C14.7,10.521,18,8.035,18,3.853V3.795c0-3.831-2.924-5.352-7.6-6.375C7.534-3.224,6.832-3.633,6.832-4.569v-.058c0-.76.673-1.316,2.047-1.316a10.049,10.049,0,0,1,5.732,2.018l2.837-4.006a12.884,12.884,0,0,0-8.422-2.72C4.112-10.652,1.1-7.9,1.1-4.1v.058c0,4.182,3.363,5.41,7.72,6.4,2.807.673,3.48,1.111,3.48,1.989v.058c0,.877-.819,1.4-2.369,1.4A10.6,10.6,0,0,1,3.293,3.356L.135,7.129A14.353,14.353,0,0,0,9.727,10.521Zm11.025-.351h16.61V5.345h-11V2.1h9.826V-2.376H26.366V-5.5H37.216v-4.8H20.752Zm27.635,0H54.06V4.321H56.9c5.059,0,8.773-2.544,8.773-7.4v-.058c0-4.5-3.334-7.165-8.481-7.165h-8.8ZM54.06-.124v-5.41h2.69c2.018,0,3.275.907,3.275,2.661v.058c0,1.608-1.257,2.69-3.246,2.69Zm24.331,10.7A10.724,10.724,0,0,0,89.445-.065V-.124a10.626,10.626,0,0,0-11-10.586A10.724,10.724,0,0,0,67.395-.065v.058A10.626,10.626,0,0,0,78.39,10.579Zm.059-5.118A5.32,5.32,0,0,1,73.185-.065V-.124A5.222,5.222,0,0,1,78.39-5.592,5.279,5.279,0,0,1,83.625-.065v.058A5.217,5.217,0,0,1,78.449,5.462Zm24.243,5.118A10.724,10.724,0,0,0,113.746-.065V-.124a10.626,10.626,0,0,0-11-10.586A10.724,10.724,0,0,0,91.7-.065v.058A10.626,10.626,0,0,0,102.692,10.579Zm.058-5.118A5.32,5.32,0,0,1,97.486-.065V-.124a5.222,5.222,0,0,1,5.205-5.469,5.279,5.279,0,0,1,5.235,5.527v.058A5.217,5.217,0,0,1,102.75,5.462Zm23.8,5.118a10.306,10.306,0,0,0,9.036-4.62l-4.27-3.041A5.591,5.591,0,0,1,126.7,5.4c-2.866,0-4.884-2.4-4.884-5.469V-.124c0-2.983,2.018-5.439,4.884-5.439a5.557,5.557,0,0,1,4.474,2.4l4.27-3.3a10.073,10.073,0,0,0-8.685-4.24A10.491,10.491,0,0,0,116-.065v.058A10.4,10.4,0,0,0,126.554,10.579Zm11.493-.409h5.673V2.391H151V10.17h5.673V-10.3H151v7.662H143.72V-10.3h-5.673Zm32.577.409A10.724,10.724,0,0,0,181.678-.065V-.124a10.626,10.626,0,0,0-11-10.586A10.723,10.723,0,0,0,159.629-.065v.058A10.626,10.626,0,0,0,170.624,10.579Zm.058-5.118a5.32,5.32,0,0,1-5.264-5.527V-.124a5.222,5.222,0,0,1,5.205-5.469,5.279,5.279,0,0,1,5.235,5.527v.058A5.217,5.217,0,0,1,170.683,5.462Z" transform="translate(212.313 121.75)" fill="#fd5080"/>
    <path id="Path_39903" data-name="Path 39903" d="M.1,10.17H6.041L7.5,6.485h7.925l1.462,3.685h6.083L14.259-10.447H8.79Zm9.065-8.1,2.31-5.79,2.281,5.79Zm13.6,8.1h5.936l1.462-3.685h7.925l1.462,3.685h6.083L36.923-10.447H31.454Zm9.065-8.1,2.31-5.79,2.281,5.79Zm21.289,8.451a7.713,7.713,0,0,0,5.615-2.076,7.6,7.6,0,0,0,2.018-5.761V-10.3H55.112V2.654c0,1.9-.907,2.866-2.31,2.866-1.287,0-2.222-.7-3.217-1.9L45.93,7.07A8.36,8.36,0,0,0,53.123,10.521Zm19.1-.351h5.673V4.848l2.076-2.281,5.176,7.6h6.784l-8.013-11.7,7.75-8.773H84.94L77.893-2V-10.3H72.219Zm26.407,0H104.3V2.42L112.078-10.3h-6.346l-4.24,7.457L97.281-10.3H90.818L98.626,2.508Zm10.381,0h5.936l1.462-3.685h7.925l1.462,3.685h6.083l-8.715-20.617h-5.469Zm9.065-8.1,2.31-5.79,2.281,5.79Zm23.892,8.1h7.808c7.34,0,11.639-4.387,11.639-10.294V-.182c0-5.907-4.24-10.118-11.522-10.118h-7.925ZM149.949-5.3c3.421,0,5.673,1.93,5.673,5.205v.058c0,3.3-2.252,5.176-5.673,5.176h-2.31V-5.3Zm14.417,15.47h16.61V5.345h-11V2.1h9.826V-2.376H169.98V-5.5H180.83v-4.8H164.366Zm19.535,0h5.673V4.848l2.076-2.281,5.176,7.6h6.785L195.6-1.528l7.749-8.773h-6.726L189.573-2V-10.3H183.9Zm21.348,0h5.673V2.391H218.2V10.17h5.673V-10.3H218.2v7.662h-7.282V-10.3h-5.673Zm32.577.409A10.724,10.724,0,0,0,248.879-.065V-.124a10.626,10.626,0,0,0-11-10.586A10.723,10.723,0,0,0,226.83-.065v.058A10.626,10.626,0,0,0,237.825,10.579Zm.058-5.118A5.32,5.32,0,0,1,232.62-.065V-.124a5.223,5.223,0,0,1,5.205-5.469A5.279,5.279,0,0,1,243.06-.065v.058A5.217,5.217,0,0,1,237.884,5.462Zm24.36,5.118a13.635,13.635,0,0,0,8.89-3.188V-1.791h-9.387V2.362h4.006V4.848a5.655,5.655,0,0,1-3.275.848,5.414,5.414,0,0,1-5.556-5.7V-.065a5.351,5.351,0,0,1,5.235-5.585,7.169,7.169,0,0,1,4.942,1.93l3.334-4.036a11.924,11.924,0,0,0-8.305-2.954,10.62,10.62,0,0,0-11,10.645v.058C251.131,6.193,255.868,10.579,262.243,10.579Zm12.048-.409H290.9V5.345h-11V2.1h9.826V-2.376h-9.826V-5.5h10.849v-4.8H274.292ZM297.628,3.5h3.509l.351-1.872c3.246-.819,5.7-2.369,5.7-6.053v-.058c0-3.831-3.012-6.141-7.311-6.141a10.284,10.284,0,0,0-7.574,3.071l2.924,3.831a6.772,6.772,0,0,1,4.27-1.93c1.4,0,2.223.614,2.223,1.608v.058c0,1.228-1.2,2.047-4.591,2.339l-.263.234ZM296.4,10.17h5.761V5.2H296.4Z" transform="translate(170.975 11.053)" fill="#ff5080"/>
    <path id="Path_39900" data-name="Path 39900" d="M356.29,324.9H281.041c-.536.9-1.077,1.8-1.629,2.686-.076.116-.157.222-.233.339h79.259a10.377,10.377,0,0,1,.749-2.868s-2.9-.035-2.9-.05S356.29,324.951,356.29,324.9Z" transform="translate(-161.701 -201.44)" fill="#03e17e"/>
    <path id="Path_39901" data-name="Path 39901" d="M933.574,96.84c-.1.863-.506,2.8-.455,2.975h10.161L899.146,209.926H846.581a10.4,10.4,0,0,1-1.452,2.975H901.2L947.735,96.87Z" transform="translate(-447.739 -86.407)" fill="#03e17e"/>
  </g>
</svg>
