<svg width="40" height="40" viewBox="0 0 40 40" fill="none" xmlns="http://www.w3.org/2000/svg">
<path fill-rule="evenodd" clip-rule="evenodd" d="M34.2066 14.8178H24.1723V7.78957C24.1707 6.78416 23.7706 5.8201 23.0593 5.10883C22.3483 4.39783 21.3843 3.99767 20.3786 3.99609H5.7938C4.78811 3.9977 3.82406 4.39788 3.11306 5.10883C2.40179 5.8201 2.00163 6.78416 2.00005 7.78957V16.91C1.99629 17.6649 2.22281 18.4033 2.64956 19.0263C4.03823 21.7317 10.6514 25.7898 10.7173 25.8499C10.8113 25.9081 10.9194 25.9392 11.03 25.94C11.1712 25.9387 11.3075 25.8874 11.4149 25.7956C11.6105 25.6287 11.6782 25.3555 11.5832 25.1163C11.055 23.6812 10.6526 22.2027 10.3808 20.6975H15.8275V27.7319C15.8291 28.7371 16.2296 29.7003 16.9408 30.4105C17.6521 31.1207 18.6161 31.5195 19.6213 31.5195H29.6191C29.3472 33.0246 28.9449 34.5032 28.4167 35.9383C28.3243 36.1758 28.392 36.4456 28.5849 36.6117C28.6923 36.7035 28.8286 36.7545 28.9698 36.7561C29.0804 36.7553 29.1886 36.7242 29.2825 36.6659C29.3485 36.6238 35.9617 32.5477 37.351 29.8423C37.7777 29.2194 38.004 28.4811 38.0002 27.726V18.6118C37.9986 17.6064 37.5984 16.6423 36.8872 15.9311C36.1762 15.2201 35.2122 14.8194 34.2066 14.8178ZM13.6819 19.4951H9.66567C9.49014 19.4951 9.3232 19.5721 9.20887 19.7055C9.09346 19.8397 9.04273 20.0176 9.07064 20.1926C9.27757 21.438 9.55644 22.6707 9.90614 23.8838C7.82612 22.4769 4.54954 20.0603 3.73177 18.5031C3.71325 18.4613 3.69151 18.421 3.66575 18.3829C3.363 17.9516 3.20116 17.437 3.20277 16.9099V7.78952C3.20438 7.10297 3.47787 6.44489 3.96365 5.95905C4.44917 5.47353 5.10731 5.20003 5.79412 5.19845H20.3789C21.0657 5.20006 21.7238 5.47355 22.2094 5.95905C22.6952 6.44484 22.9687 7.10292 22.9703 7.78952V14.8177H19.6215C18.4744 14.8183 17.3893 15.3376 16.6695 16.2305C16.6695 16.2305 16.4019 16.5492 16.2746 16.7811C16.1545 17 16.0323 17.3729 16.0323 17.3729C15.8978 17.7596 15.8286 18.166 15.8278 18.5753V19.4591L13.6819 19.4951ZM36.3353 29.2048C36.638 28.7735 36.7999 28.259 36.7982 27.7319L36.7977 18.6116C36.7962 17.925 36.5227 17.2669 36.0369 16.7811C35.5513 16.2956 34.8932 16.0221 34.2064 16.0205H19.6216C18.9348 16.0221 18.2767 16.2956 17.7911 16.7811C17.3054 17.267 17.0319 17.925 17.0303 18.6116V27.756C17.0318 28.442 17.3056 29.0996 17.7914 29.5843C18.2772 30.069 18.9353 30.3412 19.6216 30.3412H30.3353C30.5109 30.3412 30.6778 30.4179 30.7921 30.5516C30.9076 30.6855 30.9583 30.8637 30.9304 31.0385C30.7234 32.2841 30.4446 33.5166 30.0949 34.73C32.1749 33.2992 35.4576 30.8764 36.2751 29.3192C36.2891 29.2781 36.3092 29.2397 36.3353 29.2048Z" fill="white"/>
<path fill-rule="evenodd" clip-rule="evenodd" d="M27.4978 18.4857C27.475 18.4353 27.4444 18.3888 27.4077 18.3475C27.4077 18.3475 27.4077 18.3054 27.3655 18.2874C27.3443 18.2718 27.3223 18.2579 27.2995 18.2452C27.2611 18.212 27.2187 18.1838 27.1731 18.161C27.1411 18.1583 27.1089 18.1583 27.077 18.161C27.0349 18.1583 26.9927 18.1583 26.9506 18.161C26.8977 18.1653 26.8451 18.1755 26.7944 18.191H26.7284C26.672 18.216 26.6194 18.2485 26.5719 18.2874L26.5298 18.3174L26.4817 18.3896C26.4503 18.4291 26.4221 18.4715 26.3977 18.5158L22.7905 27.5338C22.7312 27.6819 22.7336 27.8478 22.7967 27.9944C22.8597 28.1409 22.9786 28.2566 23.1271 28.3154C23.1977 28.3443 23.2733 28.3586 23.3496 28.3575C23.5959 28.3578 23.8174 28.2075 23.9086 27.9788L24.9549 25.3515H28.9529L30.0049 27.9788C30.0959 28.2075 30.3176 28.3578 30.564 28.3575C30.6402 28.3575 30.7156 28.3433 30.7865 28.3154C30.9347 28.2566 31.0536 28.1409 31.1169 27.9944C31.18 27.8478 31.1821 27.6819 31.1231 27.5338L27.4978 18.4857ZM25.4116 24.119L26.9326 20.3255L28.4477 24.119H25.4116Z" fill="white"/>
<path fill-rule="evenodd" clip-rule="evenodd" d="M13.2197 9.38479H12.3434L12.3433 8.04413H16L16.0001 9.38479H14.6501L14.6502 15.9923H13.2275V13.2076C12.9581 13.2834 12.6717 13.2753 12.407 13.1846C12.3762 14.5137 11.4862 15.435 10.2199 15.435C9.3453 15.4364 8.53055 14.9943 8.05982 14.2629L8 14.1728L8.99423 13.0563L9.09075 13.2325C9.18727 13.424 9.55399 13.9986 10.2258 13.9986C10.8087 13.9986 11.0172 13.5619 11.0172 13.1521C11.0172 12.6522 10.7315 12.3994 10.1659 12.3994H9.4941V10.9745L9.96124 10.9744C10.633 10.9744 10.7334 10.4439 10.7334 10.1279C10.7334 9.69122 10.4998 9.41928 10.1272 9.41928C9.97209 9.42009 9.82066 9.46654 9.69216 9.55282C9.56359 9.63904 9.4638 9.76123 9.4053 9.90382L9.31073 10.0839L8.36872 9.0401L8.42276 8.95007C8.78886 8.34683 9.45048 7.98211 10.1601 7.9924C11.3183 7.9924 12.0905 8.80062 12.0905 10.0053C12.1085 10.553 11.8917 11.0826 11.494 11.4628C11.6136 11.522 11.7252 11.596 11.826 11.6831C12.0447 11.818 12.2963 11.8914 12.5537 11.8956C12.7847 11.9008 13.0135 11.8495 13.2197 11.7463V9.38479Z" fill="white"/>
</svg>
