<svg width="40" height="40" viewBox="0 0 40 40" fill="none" xmlns="http://www.w3.org/2000/svg">
<path fill-rule="evenodd" clip-rule="evenodd" d="M29.0106 29.9993V17.994C29.0106 16.9326 28.589 15.9148 27.8385 15.1643C27.0881 14.4138 26.0703 13.9922 25.009 13.9922L7.00163 13.9922C5.94033 13.9922 4.9225 14.4138 4.17205 15.1643C3.4216 15.9148 3 16.9326 3 17.994L3 29.9993C3 31.0607 3.4216 32.0785 4.17205 32.829C4.9225 33.5795 5.94033 34.0011 7.00163 34.0011H25.009C26.0703 34.0011 27.0881 33.5795 27.8385 32.829C28.589 32.0785 29.0106 31.0607 29.0106 29.9993Z" stroke="white" stroke-width="1.70073" stroke-linecap="round" stroke-linejoin="round"/>
<path d="M33.0127 29.9989V16.0027C33.0127 14.4107 32.3803 12.8839 31.2546 11.7581C30.129 10.6324 28.6022 10 27.0103 10H27.0003L9.00293 10.032" stroke="white" stroke-width="1.70073" stroke-linecap="round" stroke-linejoin="round"/>
<path d="M37.0146 25.9949V14.0036C37.0146 11.8809 36.1714 9.84515 34.6705 8.34419C33.1696 6.84323 31.1339 6 29.0113 6H28.9973L13.0048 6.02601" stroke="white" stroke-width="1.70073" stroke-linecap="round" stroke-linejoin="round"/>
</svg>
