<svg width="24" height="24" viewBox="0 0 24 24" fill="none" xmlns="http://www.w3.org/2000/svg">
<path d="M2.9348 8.76928L3.19669 8.68299L3.30153 8.42797C4.70814 5.00654 8.07366 2.59929 12 2.59929C15.9263 2.59929 19.2919 5.00654 20.6985 8.42797L20.8033 8.68299L21.0652 8.76928C22.4223 9.21645 23.4007 10.4948 23.4007 12C23.4007 13.5053 22.4223 14.7836 21.0652 15.2307L20.8033 15.317L20.6985 15.572C19.2919 18.9935 15.9263 21.4007 12 21.4007C8.07366 21.4007 4.70814 18.9935 3.30153 15.572L3.19669 15.317L2.9348 15.2307C1.57766 14.7836 0.599291 13.5053 0.599291 12C0.599291 10.4948 1.57766 9.21645 2.9348 8.76928Z" stroke="#E6E6E6" stroke-width="1.19858"/>
<path d="M7 14C7.99804 15.7934 9.86346 17 12 17C14.1365 17 16.002 15.7934 17 14" stroke="#E6E6E6" stroke-width="1.19858"/>
<path d="M9 11.4007C8.22641 11.4007 7.59929 10.7736 7.59929 10C7.59929 9.22641 8.22641 8.59929 9 8.59929C9.77359 8.59929 10.4007 9.22641 10.4007 10C10.4007 10.7736 9.77359 11.4007 9 11.4007ZM15 11.4007C14.2264 11.4007 13.5993 10.7736 13.5993 10C13.5993 9.22641 14.2264 8.59929 15 8.59929C15.7736 8.59929 16.4007 9.22641 16.4007 10C16.4007 10.7736 15.7736 11.4007 15 11.4007Z" stroke="#E6E6E6" stroke-width="1.19858"/>
</svg>
