<svg width="52" height="32" viewBox="0 0 52 32" fill="none" xmlns="http://www.w3.org/2000/svg">
<g filter="url(#filter0_d_38_350)">
<rect x="4" y="0.215332" width="44" height="23.686" rx="11.843" fill="url(#paint0_linear_38_350)"/>
</g>
<path d="M16.2988 11.2212V11.6704C16.2988 12.2043 16.2321 12.6828 16.0986 13.106C15.9652 13.5291 15.7731 13.8888 15.5225 14.1851C15.2718 14.4813 14.9707 14.7075 14.6191 14.8638C14.2708 15.02 13.8802 15.0981 13.4473 15.0981C13.0273 15.0981 12.6416 15.02 12.29 14.8638C11.9417 14.7075 11.639 14.4813 11.3818 14.1851C11.1279 13.8888 10.931 13.5291 10.791 13.106C10.651 12.6828 10.5811 12.2043 10.5811 11.6704V11.2212C10.5811 10.6873 10.6494 10.2104 10.7861 9.79053C10.9261 9.36735 11.123 9.00765 11.377 8.71143C11.6309 8.41195 11.932 8.18408 12.2803 8.02783C12.6318 7.87158 13.0176 7.79346 13.4375 7.79346C13.8704 7.79346 14.2611 7.87158 14.6094 8.02783C14.9609 8.18408 15.262 8.41195 15.5127 8.71143C15.7666 9.00765 15.9603 9.36735 16.0938 9.79053C16.2305 10.2104 16.2988 10.6873 16.2988 11.2212ZM15.3662 11.6704V11.2114C15.3662 10.7882 15.3223 10.4139 15.2344 10.0884C15.1497 9.76286 15.0244 9.48942 14.8584 9.26807C14.6924 9.04671 14.4889 8.87907 14.248 8.76514C14.0104 8.6512 13.7402 8.59424 13.4375 8.59424C13.1445 8.59424 12.8792 8.6512 12.6416 8.76514C12.4072 8.87907 12.2054 9.04671 12.0361 9.26807C11.8701 9.48942 11.7415 9.76286 11.6504 10.0884C11.5592 10.4139 11.5137 10.7882 11.5137 11.2114V11.6704C11.5137 12.0968 11.5592 12.4744 11.6504 12.8032C11.7415 13.1287 11.8717 13.4038 12.041 13.6284C12.2135 13.8498 12.417 14.0174 12.6514 14.1313C12.889 14.2453 13.1543 14.3022 13.4473 14.3022C13.7533 14.3022 14.0251 14.2453 14.2627 14.1313C14.5003 14.0174 14.7005 13.8498 14.8633 13.6284C15.0293 13.4038 15.1546 13.1287 15.2393 12.8032C15.3239 12.4744 15.3662 12.0968 15.3662 11.6704ZM18.4766 10.8452V15.0005H17.5732V9.71729H18.4277L18.4766 10.8452ZM18.2617 12.1587L17.8857 12.144C17.889 11.7827 17.9427 11.4491 18.0469 11.1431C18.151 10.8338 18.2975 10.5653 18.4863 10.3374C18.6751 10.1095 18.8997 9.93376 19.1602 9.81006C19.4238 9.68311 19.7152 9.61963 20.0342 9.61963C20.2946 9.61963 20.529 9.65544 20.7373 9.72705C20.9456 9.79541 21.123 9.90609 21.2695 10.0591C21.4193 10.2121 21.5332 10.4106 21.6113 10.6548C21.6895 10.8957 21.7285 11.1903 21.7285 11.5386V15.0005H20.8203V11.5288C20.8203 11.2521 20.7796 11.0308 20.6982 10.8647C20.6169 10.6955 20.498 10.5734 20.3418 10.4985C20.1855 10.4204 19.9935 10.3813 19.7656 10.3813C19.541 10.3813 19.3359 10.4285 19.1504 10.5229C18.9681 10.6174 18.8102 10.7476 18.6768 10.9136C18.5465 11.0796 18.444 11.27 18.3691 11.4849C18.2975 11.6965 18.2617 11.9211 18.2617 12.1587Z" fill="white"/>
<path fill-rule="evenodd" clip-rule="evenodd" d="M36 21.7389C41.5228 21.7389 46 17.3203 46 11.8697C46 6.41907 41.5228 2.00049 36 2.00049C30.4772 2.00049 26 6.41907 26 11.8697C26 17.3203 30.4772 21.7389 36 21.7389Z" fill="#0DAF09"/>
<defs>
<filter id="filter0_d_38_350" x="0" y="0.215332" width="52" height="31.686" filterUnits="userSpaceOnUse" color-interpolation-filters="sRGB">
<feFlood flood-opacity="0" result="BackgroundImageFix"/>
<feColorMatrix in="SourceAlpha" type="matrix" values="0 0 0 0 0 0 0 0 0 0 0 0 0 0 0 0 0 0 127 0" result="hardAlpha"/>
<feOffset dy="4"/>
<feGaussianBlur stdDeviation="2"/>
<feColorMatrix type="matrix" values="0 0 0 0 0 0 0 0 0 0 0 0 0 0 0 0 0 0 0.25 0"/>
<feBlend mode="normal" in2="BackgroundImageFix" result="effect1_dropShadow_38_350"/>
<feBlend mode="normal" in="SourceGraphic" in2="effect1_dropShadow_38_350" result="shape"/>
</filter>
<linearGradient id="paint0_linear_38_350" x1="25.4133" y1="0.215332" x2="25.4133" y2="23.9014" gradientUnits="userSpaceOnUse">
<stop offset="0.09375" stop-color="#3B4046"/>
<stop offset="1" stop-color="#2D3037"/>
</linearGradient>
</defs>
</svg>
