<svg width="52" height="32" viewBox="0 0 52 32" fill="none" xmlns="http://www.w3.org/2000/svg">
<g filter="url(#filter0_d_41_1322)">
<rect x="4" y="0.215332" width="44" height="23.686" rx="11.843" fill="url(#paint0_linear_41_1322)"/>
</g>
<path d="M34.2988 11.3462V11.7954C34.2988 12.3293 34.2321 12.8078 34.0986 13.231C33.9652 13.6541 33.7731 14.0138 33.5225 14.3101C33.2718 14.6063 32.9707 14.8325 32.6191 14.9888C32.2708 15.145 31.8802 15.2231 31.4473 15.2231C31.0273 15.2231 30.6416 15.145 30.29 14.9888C29.9417 14.8325 29.639 14.6063 29.3818 14.3101C29.1279 14.0138 28.931 13.6541 28.791 13.231C28.651 12.8078 28.5811 12.3293 28.5811 11.7954V11.3462C28.5811 10.8123 28.6494 10.3354 28.7861 9.91553C28.9261 9.49235 29.123 9.13265 29.377 8.83643C29.6309 8.53695 29.932 8.30908 30.2803 8.15283C30.6318 7.99658 31.0176 7.91846 31.4375 7.91846C31.8704 7.91846 32.2611 7.99658 32.6094 8.15283C32.9609 8.30908 33.262 8.53695 33.5127 8.83643C33.7666 9.13265 33.9603 9.49235 34.0938 9.91553C34.2305 10.3354 34.2988 10.8123 34.2988 11.3462ZM33.3662 11.7954V11.3364C33.3662 10.9132 33.3223 10.5389 33.2344 10.2134C33.1497 9.88786 33.0244 9.61442 32.8584 9.39307C32.6924 9.17171 32.4889 9.00407 32.248 8.89014C32.0104 8.7762 31.7402 8.71924 31.4375 8.71924C31.1445 8.71924 30.8792 8.7762 30.6416 8.89014C30.4072 9.00407 30.2054 9.17171 30.0361 9.39307C29.8701 9.61442 29.7415 9.88786 29.6504 10.2134C29.5592 10.5389 29.5137 10.9132 29.5137 11.3364V11.7954C29.5137 12.2218 29.5592 12.5994 29.6504 12.9282C29.7415 13.2537 29.8717 13.5288 30.041 13.7534C30.2135 13.9748 30.417 14.1424 30.6514 14.2563C30.889 14.3703 31.1543 14.4272 31.4473 14.4272C31.7533 14.4272 32.0251 14.3703 32.2627 14.2563C32.5003 14.1424 32.7005 13.9748 32.8633 13.7534C33.0293 13.5288 33.1546 13.2537 33.2393 12.9282C33.3239 12.5994 33.3662 12.2218 33.3662 11.7954ZM36.9209 15.1255H36.0176V9.28564C36.0176 8.90479 36.0859 8.58415 36.2227 8.32373C36.3626 8.06006 36.5628 7.86149 36.8232 7.72803C37.0837 7.59131 37.3929 7.52295 37.751 7.52295C37.8551 7.52295 37.9593 7.52946 38.0635 7.54248C38.1709 7.5555 38.2751 7.57503 38.376 7.60107L38.3271 8.33838C38.2588 8.3221 38.1807 8.31071 38.0928 8.3042C38.0081 8.29769 37.9235 8.29443 37.8389 8.29443C37.6468 8.29443 37.4808 8.3335 37.3408 8.41162C37.2041 8.48649 37.0999 8.59717 37.0283 8.74365C36.9567 8.89014 36.9209 9.0708 36.9209 9.28564V15.1255ZM38.0439 9.84229V10.5356H35.1826V9.84229H38.0439ZM40.3975 15.1255H39.4941V9.28564C39.4941 8.90479 39.5625 8.58415 39.6992 8.32373C39.8392 8.06006 40.0394 7.86149 40.2998 7.72803C40.5602 7.59131 40.8695 7.52295 41.2275 7.52295C41.3317 7.52295 41.4359 7.52946 41.54 7.54248C41.6475 7.5555 41.7516 7.57503 41.8525 7.60107L41.8037 8.33838C41.7354 8.3221 41.6572 8.31071 41.5693 8.3042C41.4847 8.29769 41.4001 8.29443 41.3154 8.29443C41.1234 8.29443 40.9574 8.3335 40.8174 8.41162C40.6807 8.48649 40.5765 8.59717 40.5049 8.74365C40.4333 8.89014 40.3975 9.0708 40.3975 9.28564V15.1255ZM41.5205 9.84229V10.5356H38.6592V9.84229H41.5205Z" fill="white"/>
<path fill-rule="evenodd" clip-rule="evenodd" d="M16 21.9273C21.5228 21.9273 26 17.5088 26 12.0582C26 6.60755 21.5228 2.18896 16 2.18896C10.4772 2.18896 6 6.60755 6 12.0582C6 17.5088 10.4772 21.9273 16 21.9273Z" fill="white"/>
<defs>
<filter id="filter0_d_41_1322" x="0" y="0.215332" width="52" height="31.686" filterUnits="userSpaceOnUse" color-interpolation-filters="sRGB">
<feFlood flood-opacity="0" result="BackgroundImageFix"/>
<feColorMatrix in="SourceAlpha" type="matrix" values="0 0 0 0 0 0 0 0 0 0 0 0 0 0 0 0 0 0 127 0" result="hardAlpha"/>
<feOffset dy="4"/>
<feGaussianBlur stdDeviation="2"/>
<feColorMatrix type="matrix" values="0 0 0 0 0 0 0 0 0 0 0 0 0 0 0 0 0 0 0.25 0"/>
<feBlend mode="normal" in2="BackgroundImageFix" result="effect1_dropShadow_41_1322"/>
<feBlend mode="normal" in="SourceGraphic" in2="effect1_dropShadow_41_1322" result="shape"/>
</filter>
<linearGradient id="paint0_linear_41_1322" x1="25.4133" y1="0.215332" x2="25.4133" y2="23.9014" gradientUnits="userSpaceOnUse">
<stop offset="0.09375" stop-color="#3B4046"/>
<stop offset="1" stop-color="#2D3037"/>
</linearGradient>
</defs>
</svg>
