<svg width="16" height="16" viewBox="0 0 16 16" fill="none" xmlns="http://www.w3.org/2000/svg">
<path d="M8 0.5C7.54167 0.5 7.16667 0.875 7.16667 1.33333V8C7.16667 8.45833 7.54167 8.83333 8 8.83333C8.45834 8.83333 8.83334 8.45833 8.83334 8V1.33333C8.83334 0.875 8.45834 0.5 8 0.5ZM12.2833 2.88333C11.9583 3.20833 11.9667 3.71667 12.275 4.04167C13.2167 5.04167 13.8 6.375 13.8333 7.85C13.9083 11.0417 11.2667 13.7917 8.075 13.825C4.81667 13.875 2.16667 11.25 2.16667 8C2.16667 6.46667 2.75834 5.075 3.725 4.03333C4.03334 3.70833 4.03334 3.2 3.71667 2.88333C3.38334 2.55 2.84167 2.55833 2.525 2.9C1.31667 4.18333 0.558336 5.89167 0.500003 7.78333C0.383336 11.85 3.69167 15.3667 7.75834 15.4917C12.0083 15.625 15.5 12.2167 15.5 7.99167C15.5 6.01667 14.7333 4.23333 13.4833 2.9C13.1667 2.55833 12.6167 2.55 12.2833 2.88333Z" fill="#E6E6E6"/>
</svg>
