<svg id="spinner" xmlns="http://www.w3.org/2000/svg" width="50" height="50" viewBox="0 0 50 50">
  <g id="Group_1" data-name="Group 1">
    <rect id="Rectangle_1" data-name="Rectangle 1" width="4.435" height="11.825" transform="translate(22.783)" fill="#ff2f68" opacity="0.4"/>
    <rect id="Rectangle_2" data-name="Rectangle 2" width="4.435" height="11.825" transform="matrix(0.866, -0.5, 0.5, 0.866, 10.559, 4.704)" fill="#ff2f68" opacity="0.5"/>
    <rect id="Rectangle_3" data-name="Rectangle 3" width="4.435" height="11.825" transform="matrix(0.5, -0.866, 0.866, 0.5, 2.476, 14.353)" fill="#ff2f68" opacity="0.6"/>
    <rect id="Rectangle_4" data-name="Rectangle 4" width="11.825" height="4.435" transform="translate(0 22.783)" fill="#ff2f68" opacity="0.65"/>
    <rect id="Rectangle_5" data-name="Rectangle 5" width="11.825" height="4.435" transform="matrix(0.866, -0.5, 0.5, 0.866, 2.49, 35.601)" fill="#ff2f68" opacity="0.7"/>
    <rect id="Rectangle_6" data-name="Rectangle 6" width="11.825" height="4.435" transform="translate(10.513 45.306) rotate(-59.986)" fill="#ff2f68" opacity="0.8"/>
    <rect id="Rectangle_7" data-name="Rectangle 7" width="4.435" height="11.825" transform="translate(22.783 38.175)" fill="#ff2f68" opacity="0.85"/>
    <rect id="Rectangle_8" data-name="Rectangle 8" width="4.435" height="11.825" transform="matrix(0.866, -0.5, 0.5, 0.866, 29.69, 37.272)" fill="#ff2f68" opacity="0.9"/>
    <rect id="Rectangle_9" data-name="Rectangle 9" width="4.435" height="11.825" transform="matrix(0.5, -0.866, 0.866, 0.5, 35.071, 33.574)" fill="#ff2f68" opacity="0.95"/>
    <rect id="Rectangle_10" data-name="Rectangle 10" width="11.825" height="4.435" transform="translate(38.175 22.783)" fill="#ff2f68" opacity="0.1"/>
    <rect id="Rectangle_11" data-name="Rectangle 11" width="11.825" height="4.435" transform="matrix(0.866, -0.5, 0.5, 0.866, 35.057, 16.469)" fill="#ff2f68" opacity="0.2"/>
    <rect id="Rectangle_12" data-name="Rectangle 12" width="11.825" height="4.435" transform="matrix(0.5, -0.866, 0.866, 0.5, 29.738, 12.713)" fill="#ff2f68" opacity="0.3"/>
  </g>
</svg>
